<svg width="161" height="191" viewBox="0 0 161 191" fill="none" xmlns="http://www.w3.org/2000/svg">
<path d="M148.57 9.02979H32.2949C25.4298 9.02979 19.8646 14.4299 19.8646 21.0914V178.939C19.8646 185.6 25.4298 191 32.2949 191H148.57C155.435 191 161 185.6 161 178.939V21.0914C161 14.4299 155.435 9.02979 148.57 9.02979Z" fill="#C2D9F9"/>
<path d="M136.426 1H13.4067C6.55466 1 1 6.38993 1 13.0387V167.064C1 173.713 6.55466 179.102 13.4067 179.102H136.426C143.278 179.102 148.833 173.713 148.833 167.064V13.0387C148.833 6.38993 143.278 1 136.426 1Z" fill="#E7F3FC" stroke="#024DE6" stroke-width="0.75" stroke-miterlimit="10"/>
<path d="M60.0436 13.4614H15.749C13.0901 13.4614 10.9346 15.553 10.9346 18.133C10.9346 20.713 13.0901 22.8046 15.749 22.8046H60.0436C62.7025 22.8046 64.858 20.713 64.858 18.133C64.858 15.553 62.7025 13.4614 60.0436 13.4614Z" fill="#024DE6"/>
<path d="M131.682 33.5071H18.15C14.3664 33.5071 11.2993 36.4833 11.2993 40.1547V157.824C11.2993 161.495 14.3664 164.471 18.15 164.471H131.682C135.466 164.471 138.533 161.495 138.533 157.824V40.1547C138.533 36.4833 135.466 33.5071 131.682 33.5071Z" fill="white"/>
<path d="M46.5307 118.063H26.9082C24.2493 118.063 22.0939 120.155 22.0939 122.735C22.0939 125.315 24.2493 127.407 26.9082 127.407H46.5307C49.1896 127.407 51.345 125.315 51.345 122.735C51.345 120.155 49.1896 118.063 46.5307 118.063Z" fill="#024DE6"/>
<path d="M108.988 135.139H24.5893C23.2111 135.139 22.0939 136.221 22.0939 137.555C22.0939 138.889 23.2111 139.971 24.5893 139.971H108.988C110.366 139.971 111.484 138.889 111.484 137.555C111.484 136.221 110.366 135.139 108.988 135.139Z" fill="#C2D9F9"/>
<path d="M108.988 147.155H24.5893C23.2111 147.155 22.0939 148.237 22.0939 149.571C22.0939 150.905 23.2111 151.987 24.5893 151.987H108.988C110.366 151.987 111.484 150.905 111.484 149.571C111.484 148.237 110.366 147.155 108.988 147.155Z" fill="#C2D9F9"/>
<path d="M115.627 94.8428C115.627 83.6036 105.433 57.0361 90.6249 57.0361C77.0175 57.0361 66.7413 80.4283 66.7413 80.4283C66.7413 80.4283 62.08 69.349 53.3929 69.349C41.9985 69.349 35.5715 87.4299 35.5715 94.8542H115.627V94.8428Z" fill="#024DE6"/>
<path d="M56.5828 60.8852C61.439 60.8852 65.3758 57.0652 65.3758 52.353C65.3758 47.6408 61.439 43.8208 56.5828 43.8208C51.7266 43.8208 47.7898 47.6408 47.7898 52.353C47.7898 57.0652 51.7266 60.8852 56.5828 60.8852Z" fill="#C2D9F9"/>
</svg>
