<svg width="120" height="120" viewBox="0 0 120 120" fill="none" xmlns="http://www.w3.org/2000/svg">
<path fill-rule="evenodd" clip-rule="evenodd" d="M60.8813 44.2537C57.0335 46.7073 52.5634 48.0073 48 48C47.6241 47.9999 47.2482 47.9912 46.8727 47.9737L46.9305 48L37.3275 76.0372C43.7625 80.3422 48 87.6765 48 96C48 109.255 37.2547 120 24 120C10.7452 120 0 109.255 0 96C0 82.7452 10.7452 72 24 72C24.6525 72 25.2983 72.0262 25.9373 72.0772L35.0423 44.205C28.4002 39.936 24 32.4825 24 24C24 10.7452 34.7453 0 48 0C61.2547 0 72 10.7452 72 24C72 28.1325 70.9553 32.022 69.1155 35.418L83.6805 51.399C87.4021 49.1682 91.661 47.9931 96 48C109.255 48 120 58.7453 120 72C120 85.2548 109.255 96 96 96C82.7452 96 72 85.2548 72 72C71.9937 67.9736 73.005 64.0109 74.94 60.48L60.8813 44.2537ZM24 108C30.6278 108 36 102.628 36 96C36 89.3723 30.6278 84 24 84C17.3722 84 12 89.3723 12 96C12 102.628 17.3722 108 24 108ZM48 36C54.6278 36 60 30.6278 60 24C60 17.3722 54.6278 12 48 12C41.3722 12 36 17.3722 36 24C36 30.6278 41.3722 36 48 36ZM96 84C102.628 84 108 78.6277 108 72C108 65.3723 102.628 60 96 60C89.3723 60 84 65.3723 84 72C84 78.6277 89.3723 84 96 84Z" fill="#024DE6"/>
</svg>
