<svg width="3840" height="255" viewBox="0 0 3840 255" fill="none" xmlns="http://www.w3.org/2000/svg">
<g clip-path="url(#clip0_1_2)">
<path d="M0 24.4621C0 24.4621 181.985 34.7396 314.785 30.9299C447.585 27.1202 524.56 36.9376 786.963 30.9299C1049.37 24.8268 1311.52 3.27517 1573.93 0.509702C1836.33 -2.16041 1895.25 5.94528 2157.65 18.1515C2420.06 30.4531 2615.68 39.0356 2878.08 30.9299C3140.49 22.8242 3672.41 6.13601 3934.81 1.17724C4197.22 -3.78153 4459.37 10.904 4590.7 18.1515L4721.78 25.4943V344H4590.7C4459.37 344 4197.22 344 3934.81 344C3672.41 344 3410.25 344 3147.85 344C2885.45 344 2623.29 344 2360.89 344C2098.49 344 1836.33 344 1573.93 344C1311.52 344 1049.37 344 786.963 344C524.56 344 262.403 344 131.079 344H0V24.4621Z" fill="#024DE6"/>
<path d="M1.27125e-08 80.9238C1.27125e-08 80.9238 68 80.9238 184 88.0516C300 95.1794 426.6 86.1508 640 87.1012C853.4 88.0516 1066.6 68.0937 1280 56.4041C1493.4 44.6195 1706.6 41.1981 1920 41.008C2133.4 40.818 2346.6 44.0492 2560 45.2847C2773.4 46.5202 2986.6 45.95 3200 51.7473C3413.4 57.6396 3626.6 69.9945 3733.4 76.1719L3840 82.3493V338H3733.4C3626.6 338 3413.4 338 3200 338C2986.6 338 2773.4 338 2560 338C2346.6 338 2133.4 338 1920 338C1706.6 338 1493.4 338 1280 338C1066.6 338 853.4 338 640 338C426.6 338 213.4 338 106.6 338H1.27125e-08V80.9238Z" fill="#8684F0"/>
<path d="M0 92.5244C0 92.5244 76 93.4743 136 97.2738C196 101.073 426.6 113.707 640 124.535C853.4 135.269 1066.6 139.069 1280 136.694C1493.4 134.319 1706.6 125.77 1920 122.161C2133.4 118.456 2346.6 119.786 2560 113.707C2773.4 107.723 2986.6 94.4241 3200 89.4847C3413.4 84.6403 3626.6 88.0599 3733.4 89.8647L3840 91.5745V292H3733.4C3626.6 292 3413.4 292 3200 292C2986.6 292 2773.4 292 2560 292C2346.6 292 2133.4 292 1920 292C1706.6 292 1493.4 292 1280 292C1066.6 292 853.4 292 640 292C426.6 292 213.4 292 106.6 292H0V92.5244Z" fill="#C7BFF9"/>
<path d="M0 166.815C0 166.815 238.4 173.954 316 173.03C393.6 172.105 475.573 158.784 688.973 160.122C902.373 161.365 1066.6 171.818 1280 175.165C1493.4 178.511 1706.6 178.511 1920 177.364C2133.4 176.312 2346.6 174.017 2560 165.412C2773.4 156.807 2986.6 141.892 3200 141.031C3413.4 140.267 3626.6 153.652 3733.4 160.345L3840 167.038V255H3733.4C3626.6 255 3413.4 255 3200 255C2986.6 255 2773.4 255 2560 255C2346.6 255 2133.4 255 1920 255C1706.6 255 1493.4 255 1280 255C1066.6 255 853.4 255 640 255C426.6 255 213.4 255 106.6 255H0V166.815Z" fill="white"/>
</g>
<defs>
<clipPath id="clip0_1_2">
<rect width="3840" height="255" fill="white"/>
</clipPath>
</defs>
</svg>
