<svg width="120" height="120" viewBox="0 0 120 120" fill="none" xmlns="http://www.w3.org/2000/svg">
<g clip-path="url(#clip0_259_183)">
<path fill-rule="evenodd" clip-rule="evenodd" d="M106.667 47.8933C106.667 20.9333 85.7333 0 60 0C34.2667 0 13.3333 20.9333 13.3333 46.6667C5.58 50.6467 7.62939e-06 57.9733 7.62939e-06 66.6667V80C7.62939e-06 85.3043 2.10714 90.3914 5.85787 94.1421C9.6086 97.8929 14.6957 100 20 100H26.6667C28.4348 100 30.1305 99.2976 31.3807 98.0474C32.631 96.7971 33.3333 95.1014 33.3333 93.3333V53.3333C33.3333 51.5652 32.631 49.8695 31.3807 48.6193C30.1305 47.369 28.4348 46.6667 26.6667 46.6667C26.6667 37.8261 30.1786 29.3477 36.4298 23.0964C42.681 16.8452 51.1595 13.3333 60 13.3333C68.8405 13.3333 77.319 16.8452 83.5702 23.0964C89.8214 29.3477 93.3333 37.8261 93.3333 46.6667C91.5652 46.6667 89.8695 47.369 88.6193 48.6193C87.369 49.8695 86.6667 51.5652 86.6667 53.3333V93.3333C86.6667 95.1014 87.369 96.7971 88.6193 98.0474C89.8695 99.2976 91.5652 100 93.3333 100V106.667H76.0533C74.68 102.793 71.0133 100 66.6667 100H53.3333C50.6812 100 48.1376 101.054 46.2623 102.929C44.3869 104.804 43.3333 107.348 43.3333 110C43.3333 112.652 44.3869 115.196 46.2623 117.071C48.1376 118.946 50.6812 120 53.3333 120H93.3333C96.8696 120 100.261 118.595 102.761 116.095C105.262 113.594 106.667 110.203 106.667 106.667V98.78C110.558 97.4125 113.93 94.8721 116.318 91.5089C118.706 88.1456 119.992 84.1247 120 80V66.6667C119.993 62.5426 118.706 58.5224 116.318 55.16C113.93 51.7977 110.558 49.2588 106.667 47.8933L-46.6667 413.333L106.667 47.8933Z" fill="#024DE6"/>
</g>
<defs>
<clipPath id="clip0_259_183">
<rect width="120" height="120" fill="white"/>
</clipPath>
</defs>
</svg>
