<svg width="190" height="140" viewBox="0 0 190 140" fill="none" xmlns="http://www.w3.org/2000/svg">
<path d="M69.9861 130.794L119.708 130.794C123.359 130.794 126.474 133.433 127.081 137.03L127.137 137.346C127.286 138.239 126.601 139.049 125.696 139.049L64.0023 139.049C63.097 139.049 62.4061 138.233 62.5609 137.346L62.6184 137.03C63.2259 133.432 66.341 130.794 69.9921 130.794L69.9861 130.794Z" fill="#C2D9F9" stroke="#E7F3FC" stroke-width="0.378009" stroke-linecap="round" stroke-linejoin="round"/>
<rect x="0.189004" y="1.13969" width="189.622" height="119.935" rx="7.87518" fill="#C2D9F9" stroke="#E7F3FC" stroke-width="0.378009"/>
<rect x="4.76489" y="5.11987" width="180.47" height="111.975" rx="6.04814" fill="white"/>
<rect x="87.5548" y="121.264" width="12.5078" height="9.52978" fill="#C2D9F9"/>
<path d="M115.168 9.28931H15.8659C12.3664 9.28931 9.52951 12.3082 9.52951 16.0323V104.991C9.52951 108.716 12.3664 111.734 15.8659 111.734H115.168C118.668 111.734 121.504 108.716 121.504 104.991V16.0323C121.504 12.3082 118.668 9.28931 115.168 9.28931Z" fill="#C2D9F9"/>
<path d="M175.299 64.0854H133.823C130.309 64.0854 127.461 67.0435 127.461 70.6925V106.319C127.461 109.967 130.309 112.926 133.823 112.926H175.299C178.813 112.926 181.661 109.967 181.661 106.319V70.6925C181.661 67.0435 178.813 64.0854 175.299 64.0854Z" fill="#C2D9F9"/>
<path d="M139.218 83.0916H137.032C136.102 83.0916 135.347 83.8462 135.347 84.7771V102.336C135.347 103.267 136.102 104.021 137.032 104.021H139.218C140.149 104.021 140.904 103.267 140.904 102.336V84.7771C140.904 83.8462 140.149 83.0916 139.218 83.0916Z" fill="#024DE6"/>
<path d="M172.376 79.6133H170.19C169.259 79.6133 168.504 80.3679 168.504 81.2989V102.336C168.504 103.267 169.259 104.021 170.19 104.021H172.376C173.307 104.021 174.062 103.267 174.062 102.336V81.2989C174.062 80.3679 173.307 79.6133 172.376 79.6133Z" fill="#024DE6"/>
<path d="M150.678 87.3262H148.492C147.561 87.3262 146.807 88.0808 146.807 89.0118V102.336C146.807 103.266 147.561 104.021 148.492 104.021H150.678C151.609 104.021 152.364 103.266 152.364 102.336V89.0118C152.364 88.0808 151.609 87.3262 150.678 87.3262Z" fill="#024DE6"/>
<path d="M161.78 72.5432H159.594C158.663 72.5432 157.909 73.2979 157.909 74.2288V102.336C157.909 103.267 158.663 104.021 159.594 104.021H161.78C162.711 104.021 163.466 103.267 163.466 102.336V74.2288C163.466 73.2979 162.711 72.5432 161.78 72.5432Z" fill="#024DE6"/>
<path d="M9.52951 106.694V67.5302C9.52951 67.5302 19.3385 52.8922 29.1325 51.5099C38.2196 50.2273 41.9613 60.5185 51.1117 59.8167C62.1496 58.9702 63.251 44.4671 74.2789 43.4997C83.4894 42.6917 87.3319 52.1563 96.5551 51.5099C108.499 50.6727 121.504 33.7095 121.504 33.7095V106.694C121.504 109.478 119.248 111.735 116.464 111.735H14.5696C11.786 111.735 9.52951 109.478 9.52951 106.694Z" fill="#024DE6"/>
<path d="M175.299 9.28931H133.823C130.309 9.28931 127.461 12.1833 127.461 15.7532V52.8568C127.461 56.4267 130.309 59.3207 133.823 59.3207H175.299C178.813 59.3207 181.661 56.4267 181.661 52.8568V15.7532C181.661 12.1833 178.813 9.28931 175.299 9.28931Z" fill="#C2D9F9"/>
<path d="M152.441 36.4908V20.189C147.366 20.189 142.804 22.5535 139.814 26.1868C139.814 26.1868 139.802 26.1987 139.796 26.2046C139.79 26.2165 139.778 26.2225 139.772 26.2285C137.503 29.0338 136.139 32.5955 136.139 36.4849C136.139 40.1419 137.342 43.5191 139.379 46.235C142.351 50.2078 147.092 52.7749 152.435 52.7749C157.778 52.7749 162.376 50.2792 165.354 46.4078L152.435 36.4789L152.441 36.4908Z" fill="#024DE6"/>
<path d="M154.99 16.6033V34.6324L169.285 45.6155C171.626 42.5719 173.02 38.766 173.02 34.6324C173.02 24.6738 164.949 16.6033 154.99 16.6033Z" fill="#E7F3FC"/>
<path d="M48.456 81.9539H19.4436C17.9157 81.9539 16.6771 83.1539 16.6771 84.6341C16.6771 86.1144 17.9157 87.3144 19.4436 87.3144H48.456C49.9839 87.3144 51.2225 86.1144 51.2225 84.6341C51.2225 83.1539 49.9839 81.9539 48.456 81.9539Z" fill="#E7F3FC"/>
<path d="M76.536 92.6746H18.2257C17.3704 92.6746 16.6771 93.3679 16.6771 94.2232V94.5686C16.6771 95.4239 17.3704 96.1172 18.2257 96.1172H76.536C77.3913 96.1172 78.0846 95.4239 78.0846 94.5686V94.2232C78.0846 93.3679 77.3913 92.6746 76.536 92.6746Z" fill="#C2D9F9"/>
<path d="M46.7555 99.8223H18.2257C17.3704 99.8223 16.6771 100.516 16.6771 101.371V101.716C16.6771 102.572 17.3704 103.265 18.2257 103.265H46.7555C47.6107 103.265 48.3041 102.572 48.3041 101.716V101.371C48.3041 100.516 47.6107 99.8223 46.7555 99.8223Z" fill="#C2D9F9"/>
</svg>
