<svg width="190" height="190" viewBox="0 0 190 190" fill="none" xmlns="http://www.w3.org/2000/svg">
<path d="M3.94267 10.9955C2.31025 10.9233 1.44865 9.03004 2.46644 7.75172L7.18583 1.82425C8.81403 -2.39824e-05 8.81403 -5.04083e-07 12.0704 5.5029e-10L78.8266 3.6485C82.083 3.6485 85.9581 4.77954 88.5958 9.12125L187.91 171.469C187.914 171.476 187.916 171.48 187.92 171.487C188.049 171.708 191.138 177.066 189.544 182.425L188.021 186.276C187.415 187.809 185.317 187.991 184.456 186.585L79.4682 15.2195C79.1211 14.6528 78.5152 14.2956 77.8513 14.2662L3.94267 10.9955Z" fill="#024DE6"/>
<path d="M3.82132 6.44949C2.20842 6.36292 1.16352 8.12519 2.01328 9.49881L108.722 181.991C109.062 182.541 109.648 182.893 110.294 182.935L185.784 187.809C187.405 187.914 188.468 186.145 187.615 184.763L80.723 11.4388C80.3788 10.8807 79.7828 10.5267 79.1279 10.4916L3.82132 6.44949Z" fill="#C2D9F9"/>
<path d="M25.1478 35.2269C29.3937 40.5854 35.3588 42.4196 38.4713 39.3237C41.5838 36.2278 40.665 29.3742 36.4191 24.0157C32.1733 18.6572 26.2081 16.823 23.0956 19.9189C19.9831 23.0148 20.9019 29.8684 25.1478 35.2269Z" fill="#024DE6"/>
</svg>
