<svg width="191" height="72" viewBox="0 0 191 72" fill="none" xmlns="http://www.w3.org/2000/svg">
<path d="M172.781 1H35.9434C25.8713 1 17.7033 8.90278 17.7033 18.6479V40.1112C17.7033 49.8563 25.8713 57.7591 35.9434 57.7591H45.0687C46.13 57.7591 47.1081 58.3027 47.6283 59.1886L53.6529 69.286C55.0159 71.5713 58.4184 71.5713 59.7711 69.286L65.7956 59.1886C66.3263 58.3027 67.3044 57.7591 68.3553 57.7591H172.76C182.832 57.7591 191 49.8563 191 40.1112V18.6479C191 8.90278 182.832 1 172.76 1H172.781Z" fill="#024DE6"/>
<path d="M167.532 1H19.2686C9.18073 1 1 8.90278 1 18.6479V40.1112C1 49.8563 9.18073 57.7591 19.2686 57.7591H39.6214C40.6843 57.7591 41.6639 58.3027 42.185 59.1886L48.2189 69.286C49.5841 71.5713 52.9919 71.5713 54.3467 69.286L60.3806 59.1886C60.9121 58.3027 61.8917 57.7591 62.9442 57.7591H167.512C177.599 57.7591 185.78 49.8563 185.78 40.1112V18.6479C185.78 8.90278 177.599 1 167.512 1H167.532Z" fill="white" stroke="#024DE6" stroke-width="0.75" stroke-linecap="round" stroke-linejoin="round"/>
<path d="M67.6487 19.492L69.7867 23.3527C69.9342 23.6151 70.208 23.7931 70.5345 23.8306L75.3161 24.4491C76.1271 24.5522 76.4536 25.4424 75.8638 25.9484L72.3987 28.9471C72.167 29.1532 72.0617 29.4437 72.1143 29.7248L72.9359 33.9698C73.0728 34.6913 72.2302 35.2348 71.5035 34.8975L67.2274 32.8922C66.943 32.761 66.5955 32.761 66.3111 32.8922L62.035 34.8975C61.3083 35.2348 60.4658 34.6913 60.6027 33.9698L61.4242 29.7248C61.4768 29.4437 61.3715 29.1438 61.1398 28.9471L57.6747 25.9484C57.0849 25.4424 57.4114 24.5522 58.2224 24.4491L63.004 23.8306C63.3305 23.7931 63.6043 23.6057 63.7518 23.3527L65.8898 19.492C66.2479 18.836 67.3011 18.836 67.6592 19.492H67.6487Z" fill="#FDD500"/>
<path d="M90.6157 19.492L92.7537 23.3527C92.9012 23.6151 93.175 23.7931 93.5015 23.8306L98.2831 24.4491C99.0941 24.5522 99.4206 25.4424 98.8308 25.9484L95.3657 28.9471C95.134 29.1532 95.0287 29.4437 95.0813 29.7248L95.9028 33.9698C96.0397 34.6913 95.1972 35.2348 94.4705 34.8975L90.1944 32.8922C89.91 32.761 89.5625 32.761 89.2781 32.8922L85.002 34.8975C84.2753 35.2348 83.4327 34.6913 83.5697 33.9698L84.3912 29.7248C84.4438 29.4437 84.3385 29.1438 84.1068 28.9471L80.6417 25.9484C80.0519 25.4424 80.3784 24.5522 81.1894 24.4491L85.971 23.8306C86.2975 23.7931 86.5713 23.6057 86.7188 23.3527L88.8568 19.492C89.2149 18.836 90.2681 18.836 90.6262 19.492H90.6157Z" fill="#FDD500"/>
<path d="M111.968 19.492L113.987 23.3527C114.126 23.6151 114.385 23.7931 114.693 23.8306L119.209 24.4491C119.975 24.5522 120.284 25.4424 119.727 25.9484L116.454 28.9471C116.235 29.1532 116.136 29.4437 116.185 29.7248L116.961 33.9698C117.091 34.6913 116.295 35.2348 115.609 34.8975L111.57 32.8922C111.301 32.761 110.973 32.761 110.705 32.8922L106.666 34.8975C105.98 35.2348 105.184 34.6913 105.313 33.9698L106.089 29.7248C106.139 29.4437 106.039 29.1438 105.821 28.9471L102.548 25.9484C101.991 25.4424 102.299 24.5522 103.065 24.4491L107.581 23.8306C107.89 23.7931 108.148 23.6057 108.288 23.3527L110.307 19.492C110.645 18.836 111.64 18.836 111.978 19.492H111.968Z" fill="#FDD500"/>
<path d="M134.935 19.492L136.954 23.3527C137.093 23.6151 137.352 23.7931 137.66 23.8306L142.176 24.4491C142.942 24.5522 143.251 25.4424 142.694 25.9484L139.421 28.9471C139.202 29.1532 139.103 29.4437 139.153 29.7248L139.928 33.9698C140.058 34.6913 139.262 35.2348 138.576 34.8975L134.537 32.8922C134.269 32.761 133.94 32.761 133.672 32.8922L129.633 34.8975C128.947 35.2348 128.151 34.6913 128.28 33.9698L129.056 29.7248C129.106 29.4437 129.007 29.1438 128.788 28.9471L125.515 25.9484C124.958 25.4424 125.266 24.5522 126.032 24.4491L130.548 23.8306C130.857 23.7931 131.115 23.6057 131.255 23.3527L133.274 19.492C133.612 18.836 134.607 18.836 134.945 19.492H134.935Z" fill="#FDD500"/>
<path d="M158.473 19.492L160.611 23.3527C160.758 23.6151 161.032 23.7931 161.359 23.8306L166.14 24.4491C166.951 24.5522 167.278 25.4424 166.688 25.9484L163.223 28.9471C162.991 29.1532 162.886 29.4437 162.938 29.7248L163.76 33.9698C163.897 34.6913 163.054 35.2348 162.328 34.8975L158.052 32.8922C157.767 32.761 157.42 32.761 157.135 32.8922L152.859 34.8975C152.132 35.2348 151.29 34.6913 151.427 33.9698L152.248 29.7248C152.301 29.4437 152.196 29.1438 151.964 28.9471L148.499 25.9484C147.909 25.4424 148.236 24.5522 149.047 24.4491L153.828 23.8306C154.155 23.7931 154.428 23.6057 154.576 23.3527L156.714 19.492C157.072 18.836 158.125 18.836 158.483 19.492H158.473Z" fill="#FDD500"/>
<path d="M32.3187 44C40.3905 44 46.9341 37.5081 46.9341 29.5C46.9341 21.4919 40.3905 15 32.3187 15C24.2468 15 17.7033 21.4919 17.7033 29.5C17.7033 37.5081 24.2468 44 32.3187 44Z" fill="#024DE6"/>
<path d="M32.3187 44C36.9934 44 41.1396 41.7508 43.8022 38.2738C41.7189 33.9714 37.3694 31 32.3187 31C27.2679 31 22.9286 33.9714 20.8351 38.2738C23.4977 41.7508 27.644 44 32.3187 44Z" fill="#C2D9F9"/>
<path d="M31.7967 29C34.3912 29 36.4945 26.9853 36.4945 24.5C36.4945 22.0147 34.3912 20 31.7967 20C29.2022 20 27.0989 22.0147 27.0989 24.5C27.0989 26.9853 29.2022 29 31.7967 29Z" fill="#C2D9F9"/>
</svg>
