<svg width="193" height="60" viewBox="0 0 193 60" fill="none" xmlns="http://www.w3.org/2000/svg">
<path d="M169.564 0H27.6713C14.7585 0 4.24847 10.5384 4.24847 23.4993C4.24847 36.4603 14.7585 46.9987 27.6847 46.9987H169.564C182.49 46.9987 193 36.4603 193 23.4993C193 10.5384 182.476 0 169.564 0Z" fill="#024DE6"/>
<path d="M165.819 0.511475H23.9262C11.2644 0.511475 1 10.8035 1 23.4994V23.5128C1 36.2087 11.2644 46.5007 23.9262 46.5007H165.819C178.48 46.5007 188.745 36.2087 188.745 23.5128V23.4994C188.745 10.8035 178.48 0.511475 165.819 0.511475Z" fill="white" stroke="#024DE6" stroke-width="0.75" stroke-linecap="round" stroke-linejoin="round"/>
<path d="M165.202 6.29883H151.806C142.584 6.29883 135.108 13.7949 135.108 23.0418V23.9435C135.108 33.1904 142.584 40.6864 151.806 40.6864H165.202C174.424 40.6864 181.9 33.1904 181.9 23.9435V23.0418C181.9 13.7949 174.424 6.29883 165.202 6.29883Z" fill="#024DE6"/>
<path d="M23.3627 34.8855C22.9868 34.8855 22.6915 34.5894 22.6915 34.2125V13.9972C22.6915 13.6203 22.9868 13.3242 23.3627 13.3242C23.7385 13.3242 24.0338 13.6203 24.0338 13.9972V34.2125C24.0338 34.5894 23.7385 34.8855 23.3627 34.8855Z" fill="#031001"/>
<path d="M65.5642 40.1615L38.4636 26.4872C38.3964 26.4468 38.3159 26.4333 38.2354 26.4333H36.4904C36.3428 26.4333 36.1951 26.5006 36.1011 26.6083C36.0072 26.716 35.9669 26.8775 35.9938 27.0255L41.2689 56.8775C41.3092 57.1198 41.524 57.2947 41.7656 57.2947H43.5105C43.6448 57.2947 43.779 57.2409 43.8729 57.1467L49.7656 51.2382L56.0743 59.7981C56.1682 59.9327 56.3159 60 56.477 60H58.2219C58.3293 60 58.4367 59.9596 58.5172 59.9058L64.1951 55.7066C64.3025 55.6258 64.3696 55.5047 64.3964 55.3701C64.4098 55.2355 64.383 55.1009 64.3025 54.9932L57.081 45.5585L65.5642 41.0767C65.7253 40.9825 65.8327 40.821 65.8327 40.6191C65.8327 40.4172 65.7253 40.2557 65.5508 40.1749L65.5642 40.1615Z" fill="#031001"/>
<path d="M36.4768 26.9448L41.752 56.7833L49.0674 49.4482L56.4634 59.4886L62.1412 55.2894L54.5573 45.3701L63.5775 40.6191L36.4768 26.9448Z" fill="#E7F3FC" stroke="#031001" stroke-width="0.75" stroke-linecap="round" stroke-linejoin="round"/>
<path d="M168.692 32.6378L163.242 27.1735C164.625 25.693 165.47 23.7011 165.47 21.5208C165.47 16.9313 161.752 13.2031 157.175 13.2031C152.598 13.2031 148.88 16.9313 148.88 21.5208C148.88 26.1103 152.598 29.8384 157.175 29.8384C159.081 29.8384 160.839 29.1789 162.235 28.0887L167.739 33.6069C167.873 33.7415 168.048 33.8088 168.209 33.8088C168.37 33.8088 168.558 33.7415 168.678 33.6069C168.947 33.3377 168.947 32.9205 168.678 32.6513L168.692 32.6378ZM150.235 21.5073C150.235 17.6715 153.35 14.5356 157.188 14.5356C161.027 14.5356 164.141 17.658 164.141 21.5073C164.141 25.3566 161.027 28.479 157.188 28.479C153.35 28.479 150.235 25.3566 150.235 21.5073Z" fill="white"/>
</svg>
