<svg width="120" height="120" viewBox="0 0 120 120" fill="none" xmlns="http://www.w3.org/2000/svg">
<path d="M111.584 46.4018H101.815C101.417 46.4018 101.064 46.1516 100.932 45.769C100.373 44.1795 99.7254 42.649 99.0044 41.1479C98.8279 40.78 98.9014 40.3532 99.181 40.0589L106.096 33.142C109.377 29.8602 109.377 24.5327 106.096 21.2509L98.7396 13.8926C95.4586 10.6107 90.1324 10.6107 86.8514 13.8926L79.9362 20.8094C79.6567 21.089 79.2153 21.1626 78.8622 20.986C77.3615 20.2649 75.8313 19.6174 74.2423 19.0581C73.8597 18.9257 73.6096 18.5725 73.6096 18.1751V8.40324C73.6096 3.75276 69.8431 0 65.2084 0H54.7916C50.1422 0 46.3904 3.76748 46.3904 8.40324V18.1751C46.3904 18.5725 46.1403 18.9257 45.7577 19.0581C44.1687 19.6174 42.6385 20.2649 41.1378 20.986C40.77 21.1626 40.3433 21.089 40.049 20.8094L33.1339 13.8926C29.8529 10.6107 24.5267 10.6107 21.2457 13.8926L13.8892 21.2509C10.6081 24.5327 10.6081 29.8602 13.8892 33.142L20.8043 40.0589C21.0839 40.3385 21.1574 40.78 20.9809 41.1332C20.2599 42.6343 19.6126 44.1648 19.0535 45.7542C18.921 46.1369 18.5679 46.3871 18.1707 46.3871H8.40118C3.75184 46.3871 0 50.1545 0 54.7903V65.2097C0 69.8602 3.76655 73.613 8.40118 73.613H18.1707C18.5679 73.613 18.921 73.8631 19.0535 74.2458C19.6126 75.8352 20.2599 77.3657 20.9809 78.8668C21.1574 79.2347 21.0839 79.6615 20.8043 79.9411L13.8892 86.858C10.6081 90.1398 10.6081 95.4673 13.8892 98.7491L21.2457 106.107C24.5267 109.389 29.8529 109.389 33.1339 106.107L40.049 99.1906C40.3286 98.911 40.77 98.8374 41.1378 99.014C42.6385 99.7351 44.1687 100.383 45.7577 100.942C46.1403 101.074 46.3904 101.428 46.3904 101.825V111.597C46.3904 116.247 50.1569 120 54.7916 120H65.2084C69.8578 120 73.6096 116.233 73.6096 111.597V101.825C73.6096 101.428 73.8597 101.074 74.2423 100.942C75.8313 100.383 77.3615 99.7351 78.8622 99.014C79.23 98.8374 79.6567 98.911 79.951 99.1906L86.8661 106.107C90.1471 109.389 95.4733 109.389 98.7543 106.107L106.111 98.7491C109.392 95.4673 109.392 90.1398 106.111 86.858L99.1957 79.9411C98.9161 79.6615 98.8426 79.22 99.0191 78.8668C99.7401 77.3657 100.387 75.8352 100.947 74.2458C101.079 73.8631 101.432 73.613 101.829 73.613H111.599C116.248 73.613 120 69.8455 120 65.2097V54.7903C120 50.1398 116.233 46.3871 111.599 46.3871L111.584 46.4018ZM59.9706 85.6954C45.6842 85.6954 34.105 74.1133 34.105 59.8234C34.105 45.5335 45.6842 33.9514 59.9706 33.9514C74.257 33.9514 85.8362 45.5335 85.8362 59.8234C85.8362 74.1133 74.257 85.6954 59.9706 85.6954Z" fill="#024DE6"/>
</svg>
